<svg width="40" height="40" viewBox="0 0 40 40" fill="none" xmlns="http://www.w3.org/2000/svg">
<path fill-rule="evenodd" clip-rule="evenodd" d="M20 40C31.0457 40 40 31.0457 40 20C40 8.9543 31.0457 0 20 0C8.9543 0 0 8.9543 0 20C0 31.0457 8.9543 40 20 40Z" fill="#4339F2"/>
<path fill-rule="evenodd" clip-rule="evenodd" d="M25.8333 19.1666H20.8333V14.1666C20.8333 13.7058 20.46 13.3333 20 13.3333C19.54 13.3333 19.1666 13.7058 19.1666 14.1666V19.1666H14.1666C13.7066 19.1666 13.3333 19.5391 13.3333 19.9999C13.3333 20.4608 13.7066 20.8333 14.1666 20.8333H19.1666V25.8333C19.1666 26.2941 19.54 26.6666 20 26.6666C20.46 26.6666 20.8333 26.2941 20.8333 25.8333V20.8333H25.8333C26.2933 20.8333 26.6666 20.4608 26.6666 19.9999C26.6666 19.5391 26.2933 19.1666 25.8333 19.1666Z" fill="white"/>
</svg>
