<svg width="40" height="40" viewBox="0 0 40 40" fill="none" xmlns="http://www.w3.org/2000/svg">
<path fill-rule="evenodd" clip-rule="evenodd" d="M20 40C31.0457 40 40 31.0457 40 20C40 8.9543 31.0457 0 20 0C8.9543 0 0 8.9543 0 20C0 31.0457 8.9543 40 20 40Z" fill="#FFE5D3"/>
<path fill-rule="evenodd" clip-rule="evenodd" d="M21.9409 26.667C21.8851 26.667 21.8276 26.6645 21.7701 26.6586C21.0367 26.5861 20.4617 26.0686 20.3034 25.3395L18.0676 15.0128L15.7651 20.3311C15.6326 20.6361 15.3317 20.8336 15.0001 20.8336H12.5001C12.0392 20.8336 11.6667 20.4603 11.6667 20.0003C11.6667 19.5395 12.0392 19.167 12.5001 19.167H14.4534L16.5417 14.3428C16.8376 13.6628 17.4892 13.267 18.2301 13.3411C18.9634 13.4136 19.5384 13.9311 19.6967 14.6603L21.9326 24.987L24.2351 19.6686C24.3676 19.3636 24.6676 19.167 25.0001 19.167H27.5001C27.9609 19.167 28.3334 19.5395 28.3334 20.0003C28.3334 20.4603 27.9609 20.8336 27.5001 20.8336H25.5467L23.4584 25.657C23.1859 26.2845 22.6017 26.667 21.9409 26.667Z" fill="#FF3A29"/>
</svg>
